<svg xmlns="http://www.w3.org/2000/svg" xmlns:xlink="http://www.w3.org/1999/xlink" version="1.1" width="256" height="256" viewBox="0 0 256 256" xml:space="preserve">

<defs>
</defs>
<g style="stroke: none; stroke-width: 0; stroke-dasharray: none; stroke-linecap: butt; stroke-linejoin: miter; stroke-miterlimit: 10; fill: none; fill-rule: nonzero; opacity: 1;" transform="translate(1.4065934065934016 1.4065934065934016) scale(2.81 2.81)" >
	<circle cx="45" cy="45" r="45" style="stroke: none; stroke-width: 1; stroke-dasharray: none; stroke-linecap: butt; stroke-linejoin: miter; stroke-miterlimit: 10; fill: rgb(254,192,6); fill-rule: nonzero; opacity: 1;" transform="  matrix(1 0 0 1 0 0) "/>
	<path d="M 70 43 h -7.475 c -0.382 -3.368 -1.717 -6.447 -3.727 -8.97 l 5.294 -5.294 c 0.781 -0.781 0.781 -2.047 0 -2.828 c -0.781 -0.781 -2.047 -0.781 -2.828 0 l -5.294 5.294 c -2.523 -2.01 -5.601 -3.345 -8.97 -3.727 V 20 c 0 -1.104 -0.896 -2 -2 -2 s -2 0.896 -2 2 v 7.475 c -3.368 0.382 -6.447 1.717 -8.97 3.727 l -5.294 -5.294 c -0.78 -0.781 -2.048 -0.781 -2.828 0 c -0.781 0.781 -0.781 2.047 0 2.828 l 5.294 5.294 c -2.01 2.523 -3.345 5.602 -3.727 8.97 H 20 c -1.104 0 -2 0.896 -2 2 s 0.896 2 2 2 h 7.475 c 0.382 3.368 1.717 6.447 3.727 8.97 l -5.294 5.294 c -0.781 0.781 -0.781 2.047 0 2.828 c 0.391 0.391 0.902 0.586 1.414 0.586 s 1.024 -0.195 1.414 -0.586 l 5.294 -5.294 c 2.523 2.01 5.602 3.345 8.97 3.727 V 70 c 0 1.104 0.896 2 2 2 s 2 -0.896 2 -2 v -7.475 c 3.368 -0.382 6.447 -1.717 8.97 -3.727 l 5.294 5.294 c 0.391 0.391 0.902 0.586 1.414 0.586 s 1.023 -0.195 1.414 -0.586 c 0.781 -0.781 0.781 -2.047 0 -2.828 l -5.294 -5.294 c 2.01 -2.523 3.345 -5.602 3.727 -8.97 H 70 c 1.104 0 2 -0.896 2 -2 S 71.104 43 70 43 z M 45 58.646 c -7.525 0 -13.646 -6.122 -13.646 -13.646 c 0 -7.525 6.122 -13.646 13.646 -13.646 c 7.524 0 13.646 6.122 13.646 13.646 C 58.646 52.524 52.524 58.646 45 58.646 z" style="stroke: none; stroke-width: 1; stroke-dasharray: none; stroke-linecap: butt; stroke-linejoin: miter; stroke-miterlimit: 10; fill: rgb(255,255,255); fill-rule: nonzero; opacity: 1;" transform=" matrix(1 0 0 1 0 0) " stroke-linecap="round" />
</g>
</svg>