<?xml version="1.0" encoding="UTF-8"?>
<svg xmlns="http://www.w3.org/2000/svg" xmlns:xlink="http://www.w3.org/1999/xlink" width="90px" height="45px" viewBox="0 0 90 45" version="1.1">
<g id="surface1">
<path style=" stroke:none;fill-rule:nonzero;fill:rgb(91.372549%,12.54902%,30.980392%);fill-opacity:1;" d="M 29.945312 37.4375 L 6.3125 38.164062 L 5.390625 8.050781 L 29.023438 7.328125 Z M 29.945312 37.4375 "/>
<path style=" stroke:none;fill-rule:nonzero;fill:rgb(100%,100%,100%);fill-opacity:1;" d="M 17.003906 18.199219 L 17.003906 27.527344 L 14.953125 27.527344 L 14.953125 26.371094 C 14.53125 26.828125 14.0625 27.1875 13.539062 27.445312 C 13.015625 27.699219 12.40625 27.828125 11.707031 27.828125 C 10.867188 27.828125 10.113281 27.628906 9.441406 27.226562 C 8.769531 26.824219 8.222656 26.242188 7.796875 25.476562 C 7.375 24.710938 7.160156 23.839844 7.160156 22.859375 C 7.160156 21.914062 7.367188 21.058594 7.78125 20.292969 C 8.195312 19.527344 8.765625 18.933594 9.496094 18.515625 C 10.226562 18.105469 10.984375 17.890625 11.777344 17.890625 C 12.320312 17.890625 12.800781 17.972656 13.222656 18.144531 C 13.644531 18.3125 14.003906 18.515625 14.300781 18.753906 C 14.597656 18.992188 14.804688 19.199219 14.921875 19.382812 L 14.953125 19.382812 L 14.953125 18.199219 Z M 14.886719 22.84375 C 14.886719 21.972656 14.625 21.269531 14.105469 20.734375 C 13.582031 20.199219 12.929688 19.933594 12.148438 19.933594 C 11.644531 19.933594 11.183594 20.058594 10.757812 20.3125 C 10.335938 20.566406 10 20.933594 9.757812 21.414062 C 9.515625 21.890625 9.394531 22.390625 9.394531 22.910156 C 9.394531 23.722656 9.660156 24.40625 10.199219 24.957031 C 10.738281 25.503906 11.394531 25.78125 12.164062 25.78125 C 12.980469 25.78125 13.636719 25.496094 14.136719 24.925781 C 14.636719 24.355469 14.886719 23.664062 14.886719 22.84375 Z M 14.886719 22.84375 "/>
<path style=" stroke:none;fill-rule:nonzero;fill:rgb(100%,100%,100%);fill-opacity:1;" d="M 18.585938 30.636719 L 18.585938 18.199219 L 20.636719 18.199219 L 20.636719 19.292969 L 20.671875 19.292969 C 21.085938 18.816406 21.527344 18.464844 22 18.234375 C 22.46875 18.003906 23.023438 17.890625 23.664062 17.890625 C 24.535156 17.890625 25.324219 18.09375 26.035156 18.507812 C 26.746094 18.921875 27.3125 19.523438 27.734375 20.316406 C 28.152344 21.109375 28.363281 21.972656 28.363281 22.898438 C 28.363281 24.289062 27.902344 25.457031 26.972656 26.40625 C 26.046875 27.355469 24.9375 27.828125 23.640625 27.828125 C 23.066406 27.828125 22.566406 27.738281 22.144531 27.558594 C 21.71875 27.378906 21.277344 27.070312 20.816406 26.632812 L 20.816406 30.636719 Z M 20.6875 22.859375 C 20.6875 23.402344 20.808594 23.898438 21.046875 24.355469 C 21.289062 24.8125 21.640625 25.164062 22.097656 25.410156 C 22.558594 25.65625 22.996094 25.78125 23.410156 25.78125 C 23.839844 25.78125 24.277344 25.65625 24.71875 25.40625 C 25.160156 25.15625 25.503906 24.804688 25.757812 24.351562 C 26.007812 23.898438 26.132812 23.402344 26.132812 22.867188 C 26.132812 22.03125 25.863281 21.332031 25.324219 20.773438 C 24.785156 20.210938 24.152344 19.929688 23.425781 19.929688 C 23.179688 19.929688 22.941406 19.96875 22.703125 20.039062 C 22.46875 20.109375 22.242188 20.210938 22.019531 20.34375 C 21.800781 20.480469 21.582031 20.664062 21.375 20.894531 C 21.167969 21.128906 21 21.414062 20.875 21.761719 C 20.75 22.105469 20.6875 22.472656 20.6875 22.859375 Z M 20.6875 22.859375 "/>
<path style=" stroke:none;fill-rule:nonzero;fill:rgb(0%,0%,0%);fill-opacity:1;" d="M 33.355469 26.164062 L 40.105469 9.953125 L 42.445312 9.953125 L 49.238281 26.164062 L 45.921875 26.164062 L 44.199219 21.984375 L 38.394531 21.984375 L 36.660156 26.164062 Z M 43.121094 19.160156 L 41.28125 14.1875 L 41.238281 14.1875 L 39.398438 19.160156 Z M 43.121094 19.160156 "/>
<path style=" stroke:none;fill-rule:nonzero;fill:rgb(0%,0%,0%);fill-opacity:1;" d="M 50.992188 26.164062 L 50.992188 9.953125 L 53.996094 9.953125 L 53.996094 23.363281 L 58.9375 23.363281 L 58.9375 26.164062 Z M 50.992188 26.164062 "/>
<path style=" stroke:none;fill-rule:nonzero;fill:rgb(0%,0%,0%);fill-opacity:1;" d="M 60.449219 26.164062 L 60.449219 10.878906 L 63.117188 10.878906 L 63.117188 25.265625 L 60.449219 25.265625 Z M 60.449219 26.164062 "/>
<path style=" stroke:none;fill-rule:nonzero;fill:rgb(0%,0%,0%);fill-opacity:1;" d="M 67.625 26.164062 L 67.625 12.765625 L 64.621094 12.765625 L 64.621094 9.953125 L 73.644531 9.953125 L 73.644531 12.765625 L 70.617188 12.765625 L 70.617188 26.164062 Z M 67.625 26.164062 "/>
<path style=" stroke:none;fill-rule:nonzero;fill:rgb(0%,0%,0%);fill-opacity:1;" d="M 75.023438 26.164062 L 75.023438 9.953125 L 83.742188 9.953125 L 83.742188 12.765625 L 78.03125 12.765625 L 78.03125 16.722656 L 83.507812 16.722656 L 83.507812 19.523438 L 78.03125 19.523438 L 78.03125 23.363281 L 83.742188 23.363281 L 83.742188 26.164062 Z M 75.023438 26.164062 "/>
<path style=" stroke:none;fill-rule:nonzero;fill:rgb(0%,0%,0%);fill-opacity:1;" d="M 34.390625 35.890625 L 34.390625 27.933594 L 36.605469 27.933594 C 37.148438 27.933594 37.59375 27.980469 37.941406 28.074219 C 38.292969 28.171875 38.585938 28.320312 38.820312 28.519531 C 39.058594 28.714844 39.253906 28.964844 39.410156 29.265625 C 39.570312 29.5625 39.648438 29.914062 39.648438 30.316406 C 39.648438 30.761719 39.535156 31.171875 39.304688 31.542969 C 39.078125 31.917969 38.789062 32.191406 38.441406 32.359375 C 37.984375 32.578125 37.375 32.6875 36.605469 32.6875 L 35.1875 32.6875 L 35.1875 35.890625 Z M 35.1875 28.65625 L 35.1875 31.964844 L 36.335938 31.964844 C 36.859375 31.96875 37.191406 31.960938 37.332031 31.941406 C 37.628906 31.910156 37.867188 31.832031 38.058594 31.71875 C 38.304688 31.5625 38.496094 31.363281 38.636719 31.121094 C 38.78125 30.878906 38.851562 30.609375 38.851562 30.316406 C 38.851562 30.007812 38.78125 29.738281 38.644531 29.507812 C 38.503906 29.277344 38.332031 29.09375 38.121094 28.960938 C 37.910156 28.828125 37.644531 28.742188 37.324219 28.695312 C 37.136719 28.667969 36.808594 28.65625 36.335938 28.65625 Z M 35.1875 28.65625 "/>
<path style=" stroke:none;fill-rule:nonzero;fill:rgb(0%,0%,0%);fill-opacity:1;" d="M 40.691406 35.890625 L 40.691406 27.933594 L 42.710938 27.933594 C 43.351562 27.933594 43.859375 27.984375 44.234375 28.085938 C 44.609375 28.1875 44.921875 28.34375 45.171875 28.546875 C 45.421875 28.753906 45.625 28.996094 45.777344 29.269531 C 45.984375 29.648438 46.085938 30.050781 46.085938 30.476562 C 46.085938 30.875 46.003906 31.253906 45.832031 31.609375 C 45.660156 31.964844 45.390625 32.257812 45.027344 32.492188 C 44.664062 32.726562 44.230469 32.871094 43.726562 32.921875 L 45.972656 35.890625 L 44.96875 35.890625 L 42.273438 32.289062 C 42.882812 32.285156 43.273438 32.277344 43.453125 32.261719 C 43.75 32.238281 43.992188 32.191406 44.179688 32.117188 C 44.367188 32.046875 44.550781 31.933594 44.726562 31.777344 C 44.902344 31.621094 45.042969 31.425781 45.132812 31.195312 C 45.234375 30.960938 45.285156 30.726562 45.285156 30.484375 C 45.285156 30.1875 45.21875 29.910156 45.082031 29.652344 C 44.945312 29.394531 44.773438 29.191406 44.5625 29.046875 C 44.410156 28.9375 44.195312 28.84375 43.910156 28.769531 C 43.628906 28.695312 43.28125 28.65625 42.867188 28.65625 L 41.480469 28.65625 L 41.480469 35.890625 Z M 40.691406 35.890625 "/>
<path style=" stroke:none;fill-rule:nonzero;fill:rgb(0%,0%,0%);fill-opacity:1;" d="M 46.691406 31.953125 C 46.691406 31.378906 46.796875 30.84375 47.007812 30.347656 C 47.21875 29.851562 47.503906 29.425781 47.855469 29.074219 C 48.210938 28.71875 48.605469 28.4375 49.042969 28.226562 C 49.632812 27.941406 50.253906 27.796875 50.898438 27.796875 C 51.5 27.796875 52.0625 27.90625 52.585938 28.148438 C 53.109375 28.394531 53.546875 28.675781 53.894531 29.03125 C 54.246094 29.382812 54.515625 29.765625 54.710938 30.175781 C 54.976562 30.71875 55.109375 31.300781 55.109375 31.910156 C 55.109375 32.5 54.996094 33.039062 54.769531 33.523438 C 54.542969 34.011719 54.257812 34.429688 53.90625 34.769531 C 53.558594 35.113281 53.171875 35.386719 52.75 35.59375 C 52.160156 35.878906 51.542969 36.023438 50.894531 36.023438 C 50.28125 36.023438 49.695312 35.894531 49.128906 35.632812 C 48.667969 35.417969 48.261719 35.136719 47.914062 34.792969 C 47.5625 34.445312 47.292969 34.078125 47.101562 33.679688 C 46.828125 33.132812 46.691406 32.550781 46.691406 31.953125 Z M 47.488281 31.953125 C 47.488281 32.4375 47.597656 32.90625 47.8125 33.367188 C 47.972656 33.699219 48.191406 34.007812 48.476562 34.296875 C 48.761719 34.585938 49.113281 34.828125 49.527344 35.019531 C 49.941406 35.210938 50.398438 35.308594 50.898438 35.308594 C 51.484375 35.308594 52.046875 35.15625 52.59375 34.851562 C 53.136719 34.550781 53.558594 34.140625 53.859375 33.601562 C 54.160156 33.070312 54.3125 32.511719 54.3125 31.921875 C 54.3125 31.550781 54.25 31.1875 54.128906 30.832031 C 54.003906 30.472656 53.835938 30.160156 53.625 29.886719 C 53.410156 29.613281 53.171875 29.378906 52.910156 29.179688 C 52.648438 28.984375 52.34375 28.824219 51.996094 28.699219 C 51.652344 28.578125 51.285156 28.515625 50.902344 28.515625 C 50.386719 28.515625 49.898438 28.628906 49.4375 28.851562 C 49.078125 29.023438 48.753906 29.257812 48.453125 29.554688 C 48.15625 29.851562 47.921875 30.210938 47.75 30.628906 C 47.574219 31.046875 47.488281 31.488281 47.488281 31.953125 Z M 47.488281 31.953125 "/>
<path style=" stroke:none;fill-rule:nonzero;fill:rgb(0%,0%,0%);fill-opacity:1;" d="M 59.890625 27.933594 L 59.890625 33.363281 C 59.890625 34.054688 59.816406 34.570312 59.667969 34.910156 C 59.519531 35.25 59.269531 35.523438 58.917969 35.726562 C 58.570312 35.929688 58.191406 36.03125 57.785156 36.03125 C 57.449219 36.03125 57.140625 35.964844 56.863281 35.835938 C 56.585938 35.707031 56.359375 35.550781 56.1875 35.367188 C 56.015625 35.183594 55.886719 34.984375 55.800781 34.769531 C 55.714844 34.550781 55.660156 34.292969 55.632812 34 L 56.421875 34 C 56.464844 34.40625 56.609375 34.726562 56.863281 34.957031 C 57.117188 35.191406 57.433594 35.308594 57.8125 35.308594 C 58.054688 35.308594 58.257812 35.265625 58.425781 35.175781 C 58.59375 35.089844 58.726562 34.96875 58.824219 34.820312 C 58.921875 34.671875 58.992188 34.496094 59.03125 34.289062 C 59.070312 34.082031 59.09375 33.773438 59.09375 33.367188 L 59.09375 27.933594 Z M 59.890625 27.933594 "/>
<path style=" stroke:none;fill-rule:nonzero;fill:rgb(0%,0%,0%);fill-opacity:1;" d="M 61.5 35.890625 L 61.5 27.933594 L 65.851562 27.933594 L 65.851562 28.65625 L 62.296875 28.65625 L 62.296875 31.511719 L 65.734375 31.511719 L 65.734375 32.238281 L 62.296875 32.238281 L 62.296875 35.171875 L 65.851562 35.171875 L 65.851562 35.878906 Z M 61.5 35.890625 "/>
<path style=" stroke:none;fill-rule:nonzero;fill:rgb(0%,0%,0%);fill-opacity:1;" d="M 73.90625 33.804688 L 74.800781 33.804688 C 74.585938 34.167969 74.386719 34.449219 74.199219 34.652344 C 73.933594 34.949219 73.632812 35.203125 73.289062 35.410156 C 72.949219 35.617188 72.59375 35.773438 72.21875 35.875 C 71.847656 35.980469 71.476562 36.03125 71.109375 36.03125 C 70.40625 36.03125 69.71875 35.851562 69.0625 35.488281 C 68.402344 35.121094 67.890625 34.617188 67.523438 33.976562 C 67.15625 33.332031 66.976562 32.644531 66.976562 31.914062 C 66.976562 31.1875 67.15625 30.503906 67.519531 29.859375 C 67.882812 29.214844 68.386719 28.714844 69.042969 28.351562 C 69.699219 27.988281 70.386719 27.808594 71.105469 27.808594 C 71.886719 27.808594 72.613281 28.003906 73.289062 28.402344 C 73.964844 28.796875 74.457031 29.324219 74.769531 29.980469 L 73.875 29.980469 C 73.65625 29.679688 73.449219 29.449219 73.261719 29.285156 C 72.996094 29.050781 72.691406 28.867188 72.34375 28.734375 C 71.996094 28.597656 71.609375 28.527344 71.183594 28.527344 C 70.570312 28.527344 70 28.679688 69.46875 28.980469 C 68.941406 29.285156 68.523438 29.710938 68.222656 30.261719 C 67.921875 30.808594 67.773438 31.367188 67.773438 31.933594 C 67.773438 32.414062 67.867188 32.859375 68.0625 33.265625 C 68.253906 33.675781 68.496094 34.023438 68.789062 34.304688 C 69.082031 34.589844 69.394531 34.8125 69.726562 34.976562 C 70.183594 35.199219 70.65625 35.3125 71.144531 35.3125 C 71.539062 35.3125 71.914062 35.242188 72.277344 35.101562 C 72.636719 34.957031 72.960938 34.769531 73.246094 34.527344 C 73.457031 34.351562 73.675781 34.109375 73.90625 33.804688 Z M 73.90625 33.804688 "/>
<path style=" stroke:none;fill-rule:nonzero;fill:rgb(0%,0%,0%);fill-opacity:1;" d="M 77.140625 35.890625 L 77.140625 28.65625 L 75.3125 28.65625 L 75.3125 27.933594 L 79.753906 27.933594 L 79.753906 28.65625 L 77.9375 28.65625 L 77.9375 35.890625 Z M 77.140625 35.890625 "/>
<path style=" stroke:none;fill-rule:nonzero;fill:rgb(0%,0%,0%);fill-opacity:1;" d="M 80.0625 33.664062 L 80.859375 33.664062 C 80.882812 34 80.957031 34.292969 81.09375 34.542969 C 81.226562 34.789062 81.417969 34.980469 81.671875 35.109375 C 81.925781 35.242188 82.195312 35.308594 82.484375 35.308594 C 82.78125 35.308594 83.058594 35.242188 83.316406 35.109375 C 83.570312 34.976562 83.769531 34.785156 83.90625 34.539062 C 84.046875 34.292969 84.113281 34.027344 84.113281 33.742188 C 84.113281 33.503906 84.074219 33.292969 83.992188 33.109375 C 83.910156 32.921875 83.792969 32.765625 83.644531 32.636719 C 83.496094 32.507812 83.296875 32.386719 83.042969 32.273438 C 82.894531 32.207031 82.621094 32.117188 82.226562 31.996094 C 81.828125 31.875 81.5625 31.78125 81.429688 31.71875 C 81.164062 31.59375 80.945312 31.441406 80.777344 31.273438 C 80.609375 31.101562 80.484375 30.90625 80.402344 30.6875 C 80.320312 30.46875 80.28125 30.214844 80.28125 29.929688 C 80.28125 29.550781 80.375 29.195312 80.5625 28.859375 C 80.75 28.527344 81.019531 28.265625 81.371094 28.078125 C 81.71875 27.890625 82.101562 27.796875 82.507812 27.796875 C 83.132812 27.796875 83.652344 28 84.066406 28.40625 C 84.484375 28.8125 84.699219 29.328125 84.71875 29.960938 L 83.921875 29.960938 C 83.90625 29.550781 83.761719 29.195312 83.488281 28.921875 C 83.214844 28.652344 82.882812 28.515625 82.492188 28.515625 C 82.089844 28.515625 81.753906 28.652344 81.484375 28.921875 C 81.210938 29.191406 81.078125 29.519531 81.078125 29.90625 C 81.078125 30.28125 81.1875 30.566406 81.4375 30.761719 C 81.675781 30.953125 82.085938 31.140625 82.667969 31.3125 C 83.25 31.484375 83.660156 31.644531 83.890625 31.785156 C 84.199219 31.988281 84.449219 32.257812 84.636719 32.585938 C 84.820312 32.914062 84.914062 33.277344 84.914062 33.679688 C 84.914062 34.09375 84.808594 34.484375 84.601562 34.855469 C 84.394531 35.222656 84.101562 35.511719 83.722656 35.71875 C 83.347656 35.929688 82.941406 36.03125 82.507812 36.03125 C 82.214844 36.03125 81.925781 35.984375 81.644531 35.890625 C 81.359375 35.796875 81.113281 35.664062 80.90625 35.5 C 80.699219 35.332031 80.53125 35.148438 80.410156 34.945312 C 80.289062 34.742188 80.199219 34.53125 80.140625 34.316406 C 80.101562 34.152344 80.074219 33.933594 80.0625 33.664062 Z M 80.0625 33.664062 "/>
<path style=" stroke:none;fill-rule:nonzero;fill:rgb(91.372549%,12.54902%,30.980392%);fill-opacity:1;" d="M 60.410156 7.726562 L 63.09375 7.726562 L 63.09375 10.539062 L 60.410156 10.539062 Z M 60.410156 7.726562 "/>
</g>
</svg>
